<svg width="233" height="39" viewBox="0 0 233 39" fill="none" xmlns="http://www.w3.org/2000/svg">
<path d="M25.252 8.768C27.7 8.768 29.668 9.524 31.156 11.036C32.668 12.524 33.424 14.612 33.424 17.3V29H28.384V17.984C28.384 16.424 27.988 15.236 27.196 14.42C26.404 13.58 25.324 13.16 23.956 13.16C22.588 13.16 21.496 13.58 20.68 14.42C19.888 15.236 19.492 16.424 19.492 17.984V29H14.452V17.984C14.452 16.424 14.056 15.236 13.264 14.42C12.472 13.58 11.392 13.16 10.024 13.16C8.632 13.16 7.528 13.58 6.712 14.42C5.92 15.236 5.524 16.424 5.524 17.984V29H0.484V9.056H5.524V11.468C6.172 10.628 7 9.968 8.008 9.488C9.04 9.008 10.168 8.768 11.392 8.768C12.952 8.768 14.344 9.104 15.568 9.776C16.792 10.424 17.74 11.36 18.412 12.584C19.06 11.432 19.996 10.508 21.22 9.812C22.468 9.116 23.812 8.768 25.252 8.768ZM57.2867 9.056L44.9387 38.432H39.5747L43.8947 28.496L35.9027 9.056H41.5547L46.7027 22.988L51.9227 9.056H57.2867ZM84.8711 3.872V7.94H74.3951V14.384H82.4231V18.38H74.3951V29H69.3551V3.872H84.8711ZM91.0009 6.68C90.1129 6.68 89.3689 6.404 88.7689 5.852C88.1929 5.276 87.9049 4.568 87.9049 3.728C87.9049 2.888 88.1929 2.192 88.7689 1.64C89.3689 1.064 90.1129 0.775999 91.0009 0.775999C91.8889 0.775999 92.6209 1.064 93.1969 1.64C93.7969 2.192 94.0969 2.888 94.0969 3.728C94.0969 4.568 93.7969 5.276 93.1969 5.852C92.6209 6.404 91.8889 6.68 91.0009 6.68ZM93.4849 9.056V29H88.4449V9.056H93.4849ZM109.516 8.768C111.892 8.768 113.812 9.524 115.276 11.036C116.74 12.524 117.472 14.612 117.472 17.3V29H112.432V17.984C112.432 16.4 112.036 15.188 111.244 14.348C110.452 13.484 109.372 13.052 108.004 13.052C106.612 13.052 105.508 13.484 104.692 14.348C103.9 15.188 103.504 16.4 103.504 17.984V29H98.4645V9.056H103.504V11.54C104.176 10.676 105.028 10.004 106.06 9.524C107.116 9.02 108.268 8.768 109.516 8.768ZM120.969 18.956C120.969 16.94 121.365 15.152 122.157 13.592C122.973 12.032 124.065 10.832 125.433 9.992C126.825 9.152 128.373 8.732 130.077 8.732C131.565 8.732 132.861 9.032 133.965 9.632C135.093 10.232 135.993 10.988 136.665 11.9V9.056H141.741V29H136.665V26.084C136.017 27.02 135.117 27.8 133.965 28.424C132.837 29.024 131.529 29.324 130.041 29.324C128.361 29.324 126.825 28.892 125.433 28.028C124.065 27.164 122.973 25.952 122.157 24.392C121.365 22.808 120.969 20.996 120.969 18.956ZM136.665 19.028C136.665 17.804 136.425 16.76 135.945 15.896C135.465 15.008 134.817 14.336 134.001 13.88C133.185 13.4 132.309 13.16 131.373 13.16C130.437 13.16 129.573 13.388 128.781 13.844C127.989 14.3 127.341 14.972 126.837 15.86C126.357 16.724 126.117 17.756 126.117 18.956C126.117 20.156 126.357 21.212 126.837 22.124C127.341 23.012 127.989 23.696 128.781 24.176C129.597 24.656 130.461 24.896 131.373 24.896C132.309 24.896 133.185 24.668 134.001 24.212C134.817 23.732 135.465 23.06 135.945 22.196C136.425 21.308 136.665 20.252 136.665 19.028ZM157.716 8.768C160.092 8.768 162.012 9.524 163.476 11.036C164.94 12.524 165.672 14.612 165.672 17.3V29H160.632V17.984C160.632 16.4 160.236 15.188 159.444 14.348C158.652 13.484 157.572 13.052 156.204 13.052C154.812 13.052 153.708 13.484 152.892 14.348C152.1 15.188 151.704 16.4 151.704 17.984V29H146.664V9.056H151.704V11.54C152.376 10.676 153.228 10.004 154.26 9.524C155.316 9.02 156.468 8.768 157.716 8.768ZM169.168 19.028C169.168 16.964 169.588 15.164 170.428 13.628C171.268 12.068 172.432 10.868 173.92 10.028C175.408 9.164 177.112 8.732 179.032 8.732C181.504 8.732 183.544 9.356 185.152 10.604C186.784 11.828 187.876 13.556 188.428 15.788H182.992C182.704 14.924 182.212 14.252 181.516 13.772C180.844 13.268 180.004 13.016 178.996 13.016C177.556 13.016 176.416 13.544 175.576 14.6C174.736 15.632 174.316 17.108 174.316 19.028C174.316 20.924 174.736 22.4 175.576 23.456C176.416 24.488 177.556 25.004 178.996 25.004C181.036 25.004 182.368 24.092 182.992 22.268H188.428C187.876 24.428 186.784 26.144 185.152 27.416C183.52 28.688 181.48 29.324 179.032 29.324C177.112 29.324 175.408 28.904 173.92 28.064C172.432 27.2 171.268 26 170.428 24.464C169.588 22.904 169.168 21.092 169.168 19.028ZM210.661 18.596C210.661 19.316 210.613 19.964 210.517 20.54H195.937C196.057 21.98 196.561 23.108 197.449 23.924C198.337 24.74 199.429 25.148 200.725 25.148C202.597 25.148 203.929 24.344 204.721 22.736H210.157C209.581 24.656 208.477 26.24 206.845 27.488C205.213 28.712 203.209 29.324 200.833 29.324C198.913 29.324 197.185 28.904 195.649 28.064C194.137 27.2 192.949 25.988 192.085 24.428C191.245 22.868 190.825 21.068 190.825 19.028C190.825 16.964 191.245 15.152 192.085 13.592C192.925 12.032 194.101 10.832 195.613 9.992C197.125 9.152 198.865 8.732 200.833 8.732C202.729 8.732 204.421 9.14 205.909 9.956C207.421 10.772 208.585 11.936 209.401 13.448C210.241 14.936 210.661 16.652 210.661 18.596ZM205.441 17.156C205.417 15.86 204.949 14.828 204.037 14.06C203.125 13.268 202.009 12.872 200.689 12.872C199.441 12.872 198.385 13.256 197.521 14.024C196.681 14.768 196.165 15.812 195.973 17.156H205.441Z" fill="white"/>
<path d="M62.2355 29.252C61.3235 29.252 60.5675 28.976 59.9675 28.424C59.3915 27.848 59.1035 27.14 59.1035 26.3C59.1035 25.46 59.3915 24.764 59.9675 24.212C60.5675 23.636 61.3235 23.348 62.2355 23.348C63.1235 23.348 63.8555 23.636 64.4315 24.212C65.0075 24.764 65.2955 25.46 65.2955 26.3C65.2955 27.14 65.0075 27.848 64.4315 28.424C63.8555 28.976 63.1235 29.252 62.2355 29.252ZM232.267 21.764C232.267 23.012 231.943 24.188 231.295 25.292C230.671 26.372 229.735 27.272 228.487 27.992C227.263 28.688 225.811 29.096 224.131 29.216V32.132H221.827V29.18C219.427 28.964 217.495 28.244 216.031 27.02C214.567 25.772 213.811 24.092 213.763 21.98H219.163C219.307 23.708 220.195 24.752 221.827 25.112V18.236C220.099 17.804 218.707 17.372 217.651 16.94C216.595 16.508 215.683 15.812 214.915 14.852C214.147 13.892 213.763 12.584 213.763 10.928C213.763 8.84 214.507 7.136 215.995 5.816C217.507 4.496 219.451 3.74 221.827 3.548V0.631998H224.131V3.548C226.435 3.74 228.271 4.436 229.639 5.636C231.031 6.836 231.811 8.492 231.979 10.604H226.543C226.471 9.908 226.219 9.308 225.787 8.804C225.379 8.276 224.827 7.904 224.131 7.688V14.492C225.931 14.948 227.347 15.392 228.379 15.824C229.435 16.232 230.347 16.916 231.115 17.876C231.883 18.812 232.267 20.108 232.267 21.764ZM219.019 10.676C219.019 11.468 219.259 12.116 219.739 12.62C220.219 13.1 220.915 13.496 221.827 13.808V7.58C220.963 7.7 220.279 8.024 219.775 8.552C219.271 9.08 219.019 9.788 219.019 10.676ZM224.131 25.184C225.043 25.016 225.751 24.644 226.255 24.068C226.783 23.492 227.047 22.796 227.047 21.98C227.047 21.188 226.795 20.552 226.291 20.072C225.787 19.592 225.067 19.196 224.131 18.884V25.184Z" fill="#02B414"/>
</svg>
